<svg xmlns="http://www.w3.org/2000/svg" width="48" height="48"><style type="text/css">.st0{opacity:0.19;} .st1{fill:#D36868;} .st2{fill:#AF5151;} .st3{fill:#913D3D;}</style><ellipse cx="23.5" cy="44.7" class="st0" rx="10.4" ry="3.3"/><path d="M23.5 0c-9.4 0-17 7.5-17 16.8s17 28 17 28 17-18.7 17-28S32.9 0 23.5 0z" class="st1"/><circle cx="23.5" cy="15.5" r="4.2" class="st2"/><path d="M23.5 12.2c2.2 0 3.9 1.6 4.2 3.8 0-.2.1-.3.1-.5 0-2.3-1.9-4.2-4.2-4.2s-4.2 1.9-4.2 4.2c0 .2 0 .3.1.5.1-2.1 1.8-3.8 4-3.8z" class="st3"/></svg>